<mxfile host="app.diagrams.net" modified="2022-04-06T12:56:55.863Z" agent="5.0 (Windows NT 10.0; Win64; x64) AppleWebKit/537.36 (KHTML, like Gecko) Chrome/99.0.4844.51 Safari/537.36" etag="1xcfaRea4GOS41wpttwF" version="16.6.7" type="github">
  <diagram id="taPE7v1os4AzbMLSIXXi" name="第 1 页">
    <mxGraphModel dx="609" dy="671" grid="0" gridSize="10" guides="1" tooltips="1" connect="1" arrows="1" fold="1" page="1" pageScale="1" pageWidth="827" pageHeight="1169" math="0" shadow="0">
      <root>
        <mxCell id="0" />
        <mxCell id="1" parent="0" />
        <mxCell id="5YD0OCtKCRECGLsbeRNo-146" value="" style="group" vertex="1" connectable="0" parent="1">
          <mxGeometry x="327" y="78.75" width="137.5" height="138.5" as="geometry" />
        </mxCell>
        <mxCell id="5YD0OCtKCRECGLsbeRNo-110" value="" style="group" vertex="1" connectable="0" parent="5YD0OCtKCRECGLsbeRNo-146">
          <mxGeometry width="60" height="60" as="geometry" />
        </mxCell>
        <mxCell id="5YD0OCtKCRECGLsbeRNo-63" value="4" style="whiteSpace=wrap;html=1;aspect=fixed;fillColor=#007FFF;container=0;strokeColor=#000000;strokeWidth=1;" vertex="1" parent="5YD0OCtKCRECGLsbeRNo-110">
          <mxGeometry width="30" height="30" as="geometry" />
        </mxCell>
        <mxCell id="5YD0OCtKCRECGLsbeRNo-107" value="4" style="whiteSpace=wrap;html=1;aspect=fixed;fillColor=#007FFF;container=0;strokeColor=#000000;strokeWidth=1;" vertex="1" parent="5YD0OCtKCRECGLsbeRNo-110">
          <mxGeometry x="30" width="30" height="30" as="geometry" />
        </mxCell>
        <mxCell id="5YD0OCtKCRECGLsbeRNo-108" value="4" style="whiteSpace=wrap;html=1;aspect=fixed;fillColor=#007FFF;container=0;strokeColor=#000000;strokeWidth=1;" vertex="1" parent="5YD0OCtKCRECGLsbeRNo-110">
          <mxGeometry y="30" width="30" height="30" as="geometry" />
        </mxCell>
        <mxCell id="5YD0OCtKCRECGLsbeRNo-109" value="4" style="whiteSpace=wrap;html=1;aspect=fixed;fillColor=#007FFF;container=0;strokeColor=#000000;strokeWidth=1;" vertex="1" parent="5YD0OCtKCRECGLsbeRNo-110">
          <mxGeometry x="15" y="15" width="30" height="30" as="geometry" />
        </mxCell>
        <mxCell id="5YD0OCtKCRECGLsbeRNo-111" value="" style="group" vertex="1" connectable="0" parent="5YD0OCtKCRECGLsbeRNo-146">
          <mxGeometry x="5" y="5" width="60" height="60" as="geometry" />
        </mxCell>
        <mxCell id="5YD0OCtKCRECGLsbeRNo-112" value="4" style="whiteSpace=wrap;html=1;aspect=fixed;fillColor=#007FFF;container=0;strokeColor=#000000;strokeWidth=1;" vertex="1" parent="5YD0OCtKCRECGLsbeRNo-111">
          <mxGeometry width="30" height="30" as="geometry" />
        </mxCell>
        <mxCell id="5YD0OCtKCRECGLsbeRNo-113" value="4" style="whiteSpace=wrap;html=1;aspect=fixed;fillColor=#007FFF;container=0;strokeColor=#000000;strokeWidth=1;" vertex="1" parent="5YD0OCtKCRECGLsbeRNo-111">
          <mxGeometry x="30" width="30" height="30" as="geometry" />
        </mxCell>
        <mxCell id="5YD0OCtKCRECGLsbeRNo-114" value="4" style="whiteSpace=wrap;html=1;aspect=fixed;fillColor=#007FFF;container=0;strokeColor=#000000;strokeWidth=1;" vertex="1" parent="5YD0OCtKCRECGLsbeRNo-111">
          <mxGeometry y="30" width="30" height="30" as="geometry" />
        </mxCell>
        <mxCell id="5YD0OCtKCRECGLsbeRNo-115" value="4" style="whiteSpace=wrap;html=1;aspect=fixed;fillColor=#007FFF;container=0;strokeColor=#000000;strokeWidth=1;" vertex="1" parent="5YD0OCtKCRECGLsbeRNo-111">
          <mxGeometry x="20" y="20" width="30" height="30" as="geometry" />
        </mxCell>
        <mxCell id="5YD0OCtKCRECGLsbeRNo-116" value="" style="group" vertex="1" connectable="0" parent="5YD0OCtKCRECGLsbeRNo-146">
          <mxGeometry x="10" y="10" width="60" height="60" as="geometry" />
        </mxCell>
        <mxCell id="5YD0OCtKCRECGLsbeRNo-117" value="4" style="whiteSpace=wrap;html=1;aspect=fixed;fillColor=#007FFF;container=0;strokeColor=#000000;strokeWidth=1;" vertex="1" parent="5YD0OCtKCRECGLsbeRNo-116">
          <mxGeometry width="30" height="30" as="geometry" />
        </mxCell>
        <mxCell id="5YD0OCtKCRECGLsbeRNo-118" value="4" style="whiteSpace=wrap;html=1;aspect=fixed;fillColor=#007FFF;container=0;strokeColor=#000000;strokeWidth=1;" vertex="1" parent="5YD0OCtKCRECGLsbeRNo-116">
          <mxGeometry x="30" width="30" height="30" as="geometry" />
        </mxCell>
        <mxCell id="5YD0OCtKCRECGLsbeRNo-119" value="4" style="whiteSpace=wrap;html=1;aspect=fixed;fillColor=#007FFF;container=0;strokeColor=#000000;strokeWidth=1;" vertex="1" parent="5YD0OCtKCRECGLsbeRNo-116">
          <mxGeometry y="30" width="30" height="30" as="geometry" />
        </mxCell>
        <mxCell id="5YD0OCtKCRECGLsbeRNo-120" value="4" style="whiteSpace=wrap;html=1;aspect=fixed;fillColor=#007FFF;container=0;strokeColor=#000000;strokeWidth=1;" vertex="1" parent="5YD0OCtKCRECGLsbeRNo-116">
          <mxGeometry x="25" y="25" width="30" height="30" as="geometry" />
        </mxCell>
        <mxCell id="5YD0OCtKCRECGLsbeRNo-121" value="" style="group" vertex="1" connectable="0" parent="5YD0OCtKCRECGLsbeRNo-146">
          <mxGeometry x="15" y="15" width="60" height="60" as="geometry" />
        </mxCell>
        <mxCell id="5YD0OCtKCRECGLsbeRNo-122" value="4" style="whiteSpace=wrap;html=1;aspect=fixed;fillColor=#007FFF;container=0;strokeColor=#000000;strokeWidth=1;" vertex="1" parent="5YD0OCtKCRECGLsbeRNo-121">
          <mxGeometry width="30" height="30" as="geometry" />
        </mxCell>
        <mxCell id="5YD0OCtKCRECGLsbeRNo-123" value="4" style="whiteSpace=wrap;html=1;aspect=fixed;fillColor=#007FFF;container=0;strokeColor=#000000;strokeWidth=1;" vertex="1" parent="5YD0OCtKCRECGLsbeRNo-121">
          <mxGeometry x="30" width="30" height="30" as="geometry" />
        </mxCell>
        <mxCell id="5YD0OCtKCRECGLsbeRNo-124" value="4" style="whiteSpace=wrap;html=1;aspect=fixed;fillColor=#007FFF;container=0;strokeColor=#000000;strokeWidth=1;" vertex="1" parent="5YD0OCtKCRECGLsbeRNo-121">
          <mxGeometry y="30" width="30" height="30" as="geometry" />
        </mxCell>
        <mxCell id="5YD0OCtKCRECGLsbeRNo-125" value="4" style="whiteSpace=wrap;html=1;aspect=fixed;fillColor=#007FFF;container=0;strokeColor=#000000;strokeWidth=1;" vertex="1" parent="5YD0OCtKCRECGLsbeRNo-121">
          <mxGeometry x="30" y="30" width="30" height="30" as="geometry" />
        </mxCell>
        <mxCell id="5YD0OCtKCRECGLsbeRNo-145" value="" style="group" vertex="1" connectable="0" parent="5YD0OCtKCRECGLsbeRNo-146">
          <mxGeometry x="20.5" y="20.5" width="75" height="75" as="geometry" />
        </mxCell>
        <mxCell id="5YD0OCtKCRECGLsbeRNo-129" value="" style="group" vertex="1" connectable="0" parent="5YD0OCtKCRECGLsbeRNo-145">
          <mxGeometry width="60" height="60" as="geometry" />
        </mxCell>
        <mxCell id="5YD0OCtKCRECGLsbeRNo-62" value="3" style="whiteSpace=wrap;html=1;aspect=fixed;container=0;strokeColor=#000000;strokeWidth=1;fillColor=#33FF99;" vertex="1" parent="5YD0OCtKCRECGLsbeRNo-129">
          <mxGeometry width="30" height="30" as="geometry" />
        </mxCell>
        <mxCell id="5YD0OCtKCRECGLsbeRNo-126" value="3" style="whiteSpace=wrap;html=1;aspect=fixed;container=0;strokeColor=#000000;strokeWidth=1;fillColor=#33FF99;" vertex="1" parent="5YD0OCtKCRECGLsbeRNo-129">
          <mxGeometry x="30" width="30" height="30" as="geometry" />
        </mxCell>
        <mxCell id="5YD0OCtKCRECGLsbeRNo-127" value="3" style="whiteSpace=wrap;html=1;aspect=fixed;container=0;strokeColor=#000000;strokeWidth=1;fillColor=#33FF99;" vertex="1" parent="5YD0OCtKCRECGLsbeRNo-129">
          <mxGeometry y="30" width="30" height="30" as="geometry" />
        </mxCell>
        <mxCell id="5YD0OCtKCRECGLsbeRNo-128" value="3" style="whiteSpace=wrap;html=1;aspect=fixed;container=0;strokeColor=#000000;strokeWidth=1;fillColor=#33FF99;" vertex="1" parent="5YD0OCtKCRECGLsbeRNo-129">
          <mxGeometry x="15" y="15" width="30" height="30" as="geometry" />
        </mxCell>
        <mxCell id="5YD0OCtKCRECGLsbeRNo-130" value="" style="group" vertex="1" connectable="0" parent="5YD0OCtKCRECGLsbeRNo-145">
          <mxGeometry x="5" y="5" width="60" height="60" as="geometry" />
        </mxCell>
        <mxCell id="5YD0OCtKCRECGLsbeRNo-131" value="3" style="whiteSpace=wrap;html=1;aspect=fixed;container=0;strokeColor=#000000;strokeWidth=1;fillColor=#33FF99;" vertex="1" parent="5YD0OCtKCRECGLsbeRNo-130">
          <mxGeometry width="30" height="30" as="geometry" />
        </mxCell>
        <mxCell id="5YD0OCtKCRECGLsbeRNo-132" value="3" style="whiteSpace=wrap;html=1;aspect=fixed;container=0;strokeColor=#000000;strokeWidth=1;fillColor=#33FF99;" vertex="1" parent="5YD0OCtKCRECGLsbeRNo-130">
          <mxGeometry x="30" width="30" height="30" as="geometry" />
        </mxCell>
        <mxCell id="5YD0OCtKCRECGLsbeRNo-133" value="3" style="whiteSpace=wrap;html=1;aspect=fixed;container=0;strokeColor=#000000;strokeWidth=1;fillColor=#33FF99;" vertex="1" parent="5YD0OCtKCRECGLsbeRNo-130">
          <mxGeometry y="30" width="30" height="30" as="geometry" />
        </mxCell>
        <mxCell id="5YD0OCtKCRECGLsbeRNo-134" value="3" style="whiteSpace=wrap;html=1;aspect=fixed;container=0;strokeColor=#000000;strokeWidth=1;fillColor=#33FF99;" vertex="1" parent="5YD0OCtKCRECGLsbeRNo-130">
          <mxGeometry x="20" y="20" width="30" height="30" as="geometry" />
        </mxCell>
        <mxCell id="5YD0OCtKCRECGLsbeRNo-135" value="" style="group" vertex="1" connectable="0" parent="5YD0OCtKCRECGLsbeRNo-145">
          <mxGeometry x="10" y="10" width="60" height="60" as="geometry" />
        </mxCell>
        <mxCell id="5YD0OCtKCRECGLsbeRNo-136" value="3" style="whiteSpace=wrap;html=1;aspect=fixed;container=0;strokeColor=#000000;strokeWidth=1;fillColor=#33FF99;" vertex="1" parent="5YD0OCtKCRECGLsbeRNo-135">
          <mxGeometry width="30" height="30" as="geometry" />
        </mxCell>
        <mxCell id="5YD0OCtKCRECGLsbeRNo-137" value="3" style="whiteSpace=wrap;html=1;aspect=fixed;container=0;strokeColor=#000000;strokeWidth=1;fillColor=#33FF99;" vertex="1" parent="5YD0OCtKCRECGLsbeRNo-135">
          <mxGeometry x="30" width="30" height="30" as="geometry" />
        </mxCell>
        <mxCell id="5YD0OCtKCRECGLsbeRNo-138" value="3" style="whiteSpace=wrap;html=1;aspect=fixed;container=0;strokeColor=#000000;strokeWidth=1;fillColor=#33FF99;" vertex="1" parent="5YD0OCtKCRECGLsbeRNo-135">
          <mxGeometry y="30" width="30" height="30" as="geometry" />
        </mxCell>
        <mxCell id="5YD0OCtKCRECGLsbeRNo-139" value="3" style="whiteSpace=wrap;html=1;aspect=fixed;container=0;strokeColor=#000000;strokeWidth=1;fillColor=#33FF99;" vertex="1" parent="5YD0OCtKCRECGLsbeRNo-135">
          <mxGeometry x="25" y="25" width="30" height="30" as="geometry" />
        </mxCell>
        <mxCell id="5YD0OCtKCRECGLsbeRNo-140" value="" style="group" vertex="1" connectable="0" parent="5YD0OCtKCRECGLsbeRNo-145">
          <mxGeometry x="15" y="15" width="60" height="60" as="geometry" />
        </mxCell>
        <mxCell id="5YD0OCtKCRECGLsbeRNo-141" value="3" style="whiteSpace=wrap;html=1;aspect=fixed;container=0;strokeColor=#000000;strokeWidth=1;fillColor=#33FF99;" vertex="1" parent="5YD0OCtKCRECGLsbeRNo-140">
          <mxGeometry width="30" height="30" as="geometry" />
        </mxCell>
        <mxCell id="5YD0OCtKCRECGLsbeRNo-142" value="3" style="whiteSpace=wrap;html=1;aspect=fixed;container=0;strokeColor=#000000;strokeWidth=1;fillColor=#33FF99;" vertex="1" parent="5YD0OCtKCRECGLsbeRNo-140">
          <mxGeometry x="30" width="30" height="30" as="geometry" />
        </mxCell>
        <mxCell id="5YD0OCtKCRECGLsbeRNo-143" value="3" style="whiteSpace=wrap;html=1;aspect=fixed;container=0;strokeColor=#000000;strokeWidth=1;fillColor=#33FF99;" vertex="1" parent="5YD0OCtKCRECGLsbeRNo-140">
          <mxGeometry y="30" width="30" height="30" as="geometry" />
        </mxCell>
        <mxCell id="5YD0OCtKCRECGLsbeRNo-144" value="3" style="whiteSpace=wrap;html=1;aspect=fixed;container=0;strokeColor=#000000;strokeWidth=1;fillColor=#33FF99;" vertex="1" parent="5YD0OCtKCRECGLsbeRNo-140">
          <mxGeometry x="30" y="30" width="30" height="30" as="geometry" />
        </mxCell>
        <mxCell id="5YD0OCtKCRECGLsbeRNo-106" value="" style="group" vertex="1" connectable="0" parent="5YD0OCtKCRECGLsbeRNo-146">
          <mxGeometry x="40" y="41" width="97.5" height="97.5" as="geometry" />
        </mxCell>
        <mxCell id="5YD0OCtKCRECGLsbeRNo-89" value="" style="group" vertex="1" connectable="0" parent="5YD0OCtKCRECGLsbeRNo-106">
          <mxGeometry width="60" height="60" as="geometry" />
        </mxCell>
        <mxCell id="5YD0OCtKCRECGLsbeRNo-61" value="2" style="whiteSpace=wrap;html=1;aspect=fixed;container=0;strokeColor=#000000;strokeWidth=1;fillColor=#FFFF00;" vertex="1" parent="5YD0OCtKCRECGLsbeRNo-89">
          <mxGeometry width="30" height="30" as="geometry" />
        </mxCell>
        <mxCell id="5YD0OCtKCRECGLsbeRNo-86" value="2" style="whiteSpace=wrap;html=1;aspect=fixed;container=0;strokeColor=#000000;strokeWidth=1;fillColor=#FFFF00;" vertex="1" parent="5YD0OCtKCRECGLsbeRNo-89">
          <mxGeometry x="30" width="30" height="30" as="geometry" />
        </mxCell>
        <mxCell id="5YD0OCtKCRECGLsbeRNo-87" value="2" style="whiteSpace=wrap;html=1;aspect=fixed;container=0;strokeColor=#000000;strokeWidth=1;fillColor=#FFFF00;" vertex="1" parent="5YD0OCtKCRECGLsbeRNo-89">
          <mxGeometry y="30" width="30" height="30" as="geometry" />
        </mxCell>
        <mxCell id="5YD0OCtKCRECGLsbeRNo-88" value="2" style="whiteSpace=wrap;html=1;aspect=fixed;container=0;strokeColor=#000000;strokeWidth=1;fillColor=#FFFF00;" vertex="1" parent="5YD0OCtKCRECGLsbeRNo-89">
          <mxGeometry x="15" y="15" width="30" height="30" as="geometry" />
        </mxCell>
        <mxCell id="5YD0OCtKCRECGLsbeRNo-90" value="" style="group" vertex="1" connectable="0" parent="5YD0OCtKCRECGLsbeRNo-106">
          <mxGeometry x="5" y="5" width="60" height="60" as="geometry" />
        </mxCell>
        <mxCell id="5YD0OCtKCRECGLsbeRNo-91" value="2" style="whiteSpace=wrap;html=1;aspect=fixed;container=0;strokeColor=#000000;strokeWidth=1;fillColor=#FFFF00;" vertex="1" parent="5YD0OCtKCRECGLsbeRNo-90">
          <mxGeometry width="30" height="30" as="geometry" />
        </mxCell>
        <mxCell id="5YD0OCtKCRECGLsbeRNo-92" value="2" style="whiteSpace=wrap;html=1;aspect=fixed;container=0;strokeColor=#000000;strokeWidth=1;fillColor=#FFFF00;" vertex="1" parent="5YD0OCtKCRECGLsbeRNo-90">
          <mxGeometry x="30" width="30" height="30" as="geometry" />
        </mxCell>
        <mxCell id="5YD0OCtKCRECGLsbeRNo-93" value="2" style="whiteSpace=wrap;html=1;aspect=fixed;container=0;strokeColor=#000000;strokeWidth=1;fillColor=#FFFF00;" vertex="1" parent="5YD0OCtKCRECGLsbeRNo-90">
          <mxGeometry y="30" width="30" height="30" as="geometry" />
        </mxCell>
        <mxCell id="5YD0OCtKCRECGLsbeRNo-94" value="2" style="whiteSpace=wrap;html=1;aspect=fixed;container=0;strokeColor=#000000;strokeWidth=1;fillColor=#FFFF00;" vertex="1" parent="5YD0OCtKCRECGLsbeRNo-90">
          <mxGeometry x="20" y="20" width="30" height="30" as="geometry" />
        </mxCell>
        <mxCell id="5YD0OCtKCRECGLsbeRNo-95" value="" style="group" vertex="1" connectable="0" parent="5YD0OCtKCRECGLsbeRNo-106">
          <mxGeometry x="10" y="10" width="60" height="60" as="geometry" />
        </mxCell>
        <mxCell id="5YD0OCtKCRECGLsbeRNo-96" value="2" style="whiteSpace=wrap;html=1;aspect=fixed;container=0;strokeColor=#000000;strokeWidth=1;fillColor=#FFFF00;" vertex="1" parent="5YD0OCtKCRECGLsbeRNo-95">
          <mxGeometry width="30" height="30" as="geometry" />
        </mxCell>
        <mxCell id="5YD0OCtKCRECGLsbeRNo-97" value="2" style="whiteSpace=wrap;html=1;aspect=fixed;container=0;strokeColor=#000000;strokeWidth=1;fillColor=#FFFF00;" vertex="1" parent="5YD0OCtKCRECGLsbeRNo-95">
          <mxGeometry x="30" width="30" height="30" as="geometry" />
        </mxCell>
        <mxCell id="5YD0OCtKCRECGLsbeRNo-98" value="2" style="whiteSpace=wrap;html=1;aspect=fixed;container=0;strokeColor=#000000;strokeWidth=1;fillColor=#FFFF00;" vertex="1" parent="5YD0OCtKCRECGLsbeRNo-95">
          <mxGeometry y="30" width="30" height="30" as="geometry" />
        </mxCell>
        <mxCell id="5YD0OCtKCRECGLsbeRNo-99" value="2" style="whiteSpace=wrap;html=1;aspect=fixed;container=0;strokeColor=#000000;strokeWidth=1;fillColor=#FFFF00;" vertex="1" parent="5YD0OCtKCRECGLsbeRNo-95">
          <mxGeometry x="25" y="25" width="30" height="30" as="geometry" />
        </mxCell>
        <mxCell id="5YD0OCtKCRECGLsbeRNo-100" value="" style="group" vertex="1" connectable="0" parent="5YD0OCtKCRECGLsbeRNo-106">
          <mxGeometry x="15" y="15" width="82.5" height="82.5" as="geometry" />
        </mxCell>
        <mxCell id="5YD0OCtKCRECGLsbeRNo-101" value="2" style="whiteSpace=wrap;html=1;aspect=fixed;container=0;strokeColor=#000000;strokeWidth=1;fillColor=#FFFF00;" vertex="1" parent="5YD0OCtKCRECGLsbeRNo-100">
          <mxGeometry width="30" height="30" as="geometry" />
        </mxCell>
        <mxCell id="5YD0OCtKCRECGLsbeRNo-102" value="2" style="whiteSpace=wrap;html=1;aspect=fixed;container=0;strokeColor=#000000;strokeWidth=1;fillColor=#FFFF00;" vertex="1" parent="5YD0OCtKCRECGLsbeRNo-100">
          <mxGeometry x="30" width="30" height="30" as="geometry" />
        </mxCell>
        <mxCell id="5YD0OCtKCRECGLsbeRNo-103" value="2" style="whiteSpace=wrap;html=1;aspect=fixed;container=0;strokeColor=#000000;strokeWidth=1;fillColor=#FFFF00;" vertex="1" parent="5YD0OCtKCRECGLsbeRNo-100">
          <mxGeometry y="30" width="30" height="30" as="geometry" />
        </mxCell>
        <mxCell id="5YD0OCtKCRECGLsbeRNo-104" value="2" style="whiteSpace=wrap;html=1;aspect=fixed;container=0;strokeColor=#000000;strokeWidth=1;fillColor=#FFFF00;" vertex="1" parent="5YD0OCtKCRECGLsbeRNo-100">
          <mxGeometry x="30" y="30" width="30" height="30" as="geometry" />
        </mxCell>
        <mxCell id="5YD0OCtKCRECGLsbeRNo-105" value="" style="group" vertex="1" connectable="0" parent="5YD0OCtKCRECGLsbeRNo-100">
          <mxGeometry x="4.5" y="4.5" width="75" height="75" as="geometry" />
        </mxCell>
        <mxCell id="5YD0OCtKCRECGLsbeRNo-70" value="" style="group" vertex="1" connectable="0" parent="5YD0OCtKCRECGLsbeRNo-105">
          <mxGeometry width="60" height="60" as="geometry" />
        </mxCell>
        <mxCell id="5YD0OCtKCRECGLsbeRNo-60" value="1" style="whiteSpace=wrap;html=1;aspect=fixed;fillColor=#FF3333;fontColor=#ffffff;strokeColor=#000000;container=0;strokeWidth=1;" vertex="1" parent="5YD0OCtKCRECGLsbeRNo-70">
          <mxGeometry width="30" height="30" as="geometry" />
        </mxCell>
        <mxCell id="5YD0OCtKCRECGLsbeRNo-67" value="1" style="whiteSpace=wrap;html=1;aspect=fixed;fillColor=#FF3333;fontColor=#ffffff;strokeColor=#000000;container=0;strokeWidth=1;" vertex="1" parent="5YD0OCtKCRECGLsbeRNo-70">
          <mxGeometry x="30" width="30" height="30" as="geometry" />
        </mxCell>
        <mxCell id="5YD0OCtKCRECGLsbeRNo-68" value="1" style="whiteSpace=wrap;html=1;aspect=fixed;fillColor=#FF3333;fontColor=#ffffff;strokeColor=#000000;container=0;strokeWidth=1;" vertex="1" parent="5YD0OCtKCRECGLsbeRNo-70">
          <mxGeometry y="30" width="30" height="30" as="geometry" />
        </mxCell>
        <mxCell id="5YD0OCtKCRECGLsbeRNo-69" value="1" style="whiteSpace=wrap;html=1;aspect=fixed;fillColor=#FF3333;fontColor=#ffffff;strokeColor=#000000;container=0;strokeWidth=1;" vertex="1" parent="5YD0OCtKCRECGLsbeRNo-70">
          <mxGeometry x="15" y="15" width="30" height="30" as="geometry" />
        </mxCell>
        <mxCell id="5YD0OCtKCRECGLsbeRNo-71" value="" style="group" vertex="1" connectable="0" parent="5YD0OCtKCRECGLsbeRNo-105">
          <mxGeometry x="5" y="5" width="60" height="60" as="geometry" />
        </mxCell>
        <mxCell id="5YD0OCtKCRECGLsbeRNo-72" value="1" style="whiteSpace=wrap;html=1;aspect=fixed;fillColor=#FF3333;fontColor=#ffffff;strokeColor=#000000;container=0;strokeWidth=1;" vertex="1" parent="5YD0OCtKCRECGLsbeRNo-71">
          <mxGeometry width="30" height="30" as="geometry" />
        </mxCell>
        <mxCell id="5YD0OCtKCRECGLsbeRNo-73" value="1" style="whiteSpace=wrap;html=1;aspect=fixed;fillColor=#FF3333;fontColor=#ffffff;strokeColor=#000000;container=0;strokeWidth=1;" vertex="1" parent="5YD0OCtKCRECGLsbeRNo-71">
          <mxGeometry x="30" width="30" height="30" as="geometry" />
        </mxCell>
        <mxCell id="5YD0OCtKCRECGLsbeRNo-74" value="1" style="whiteSpace=wrap;html=1;aspect=fixed;fillColor=#FF3333;fontColor=#ffffff;strokeColor=#000000;container=0;strokeWidth=1;" vertex="1" parent="5YD0OCtKCRECGLsbeRNo-71">
          <mxGeometry y="30" width="30" height="30" as="geometry" />
        </mxCell>
        <mxCell id="5YD0OCtKCRECGLsbeRNo-75" value="1" style="whiteSpace=wrap;html=1;aspect=fixed;fillColor=#FF3333;fontColor=#ffffff;strokeColor=#000000;container=0;strokeWidth=1;" vertex="1" parent="5YD0OCtKCRECGLsbeRNo-71">
          <mxGeometry x="20" y="20" width="30" height="30" as="geometry" />
        </mxCell>
        <mxCell id="5YD0OCtKCRECGLsbeRNo-76" value="" style="group" vertex="1" connectable="0" parent="5YD0OCtKCRECGLsbeRNo-105">
          <mxGeometry x="10" y="10" width="60" height="60" as="geometry" />
        </mxCell>
        <mxCell id="5YD0OCtKCRECGLsbeRNo-77" value="1" style="whiteSpace=wrap;html=1;aspect=fixed;fillColor=#FF3333;fontColor=#ffffff;strokeColor=#000000;container=0;strokeWidth=1;" vertex="1" parent="5YD0OCtKCRECGLsbeRNo-76">
          <mxGeometry width="30" height="30" as="geometry" />
        </mxCell>
        <mxCell id="5YD0OCtKCRECGLsbeRNo-78" value="1" style="whiteSpace=wrap;html=1;aspect=fixed;fillColor=#FF3333;fontColor=#ffffff;strokeColor=#000000;container=0;strokeWidth=1;" vertex="1" parent="5YD0OCtKCRECGLsbeRNo-76">
          <mxGeometry x="30" width="30" height="30" as="geometry" />
        </mxCell>
        <mxCell id="5YD0OCtKCRECGLsbeRNo-79" value="1" style="whiteSpace=wrap;html=1;aspect=fixed;fillColor=#FF3333;fontColor=#ffffff;strokeColor=#000000;container=0;strokeWidth=1;" vertex="1" parent="5YD0OCtKCRECGLsbeRNo-76">
          <mxGeometry y="30" width="30" height="30" as="geometry" />
        </mxCell>
        <mxCell id="5YD0OCtKCRECGLsbeRNo-80" value="1" style="whiteSpace=wrap;html=1;aspect=fixed;fillColor=#FF3333;fontColor=#ffffff;strokeColor=#000000;container=0;strokeWidth=1;" vertex="1" parent="5YD0OCtKCRECGLsbeRNo-76">
          <mxGeometry x="25" y="25" width="30" height="30" as="geometry" />
        </mxCell>
        <mxCell id="5YD0OCtKCRECGLsbeRNo-81" value="" style="group" vertex="1" connectable="0" parent="5YD0OCtKCRECGLsbeRNo-105">
          <mxGeometry x="15" y="15" width="60" height="60" as="geometry" />
        </mxCell>
        <mxCell id="5YD0OCtKCRECGLsbeRNo-82" value="&lt;font color=&quot;#000000&quot;&gt;1&lt;/font&gt;" style="whiteSpace=wrap;html=1;aspect=fixed;fillColor=#FF3333;fontColor=#ffffff;strokeColor=#000000;container=0;strokeWidth=1;" vertex="1" parent="5YD0OCtKCRECGLsbeRNo-81">
          <mxGeometry width="30" height="30" as="geometry" />
        </mxCell>
        <mxCell id="5YD0OCtKCRECGLsbeRNo-83" value="&lt;font color=&quot;#000000&quot;&gt;1&lt;/font&gt;" style="whiteSpace=wrap;html=1;aspect=fixed;fillColor=#FF3333;fontColor=#ffffff;strokeColor=#000000;container=0;strokeWidth=1;" vertex="1" parent="5YD0OCtKCRECGLsbeRNo-81">
          <mxGeometry x="30" width="30" height="30" as="geometry" />
        </mxCell>
        <mxCell id="5YD0OCtKCRECGLsbeRNo-84" value="&lt;font color=&quot;#000000&quot;&gt;1&lt;/font&gt;" style="whiteSpace=wrap;html=1;aspect=fixed;fillColor=#FF3333;fontColor=#ffffff;strokeColor=#000000;container=0;strokeWidth=1;" vertex="1" parent="5YD0OCtKCRECGLsbeRNo-81">
          <mxGeometry y="30" width="30" height="30" as="geometry" />
        </mxCell>
        <mxCell id="5YD0OCtKCRECGLsbeRNo-85" value="&lt;font color=&quot;#000000&quot;&gt;1&lt;/font&gt;" style="whiteSpace=wrap;html=1;aspect=fixed;fillColor=#FF3333;fontColor=#ffffff;strokeColor=#000000;container=0;strokeWidth=1;" vertex="1" parent="5YD0OCtKCRECGLsbeRNo-81">
          <mxGeometry x="30" y="30" width="30" height="30" as="geometry" />
        </mxCell>
        <mxCell id="5YD0OCtKCRECGLsbeRNo-148" value="" style="group" vertex="1" connectable="0" parent="1">
          <mxGeometry x="65" y="80" width="134" height="134" as="geometry" />
        </mxCell>
        <mxCell id="5YD0OCtKCRECGLsbeRNo-23" value="" style="group" vertex="1" connectable="0" parent="5YD0OCtKCRECGLsbeRNo-148">
          <mxGeometry width="120" height="120" as="geometry" />
        </mxCell>
        <mxCell id="5YD0OCtKCRECGLsbeRNo-1" value="1" style="whiteSpace=wrap;html=1;aspect=fixed;fillColor=#FF3333;fontColor=#ffffff;strokeColor=#000000;container=0;strokeWidth=1;" vertex="1" parent="5YD0OCtKCRECGLsbeRNo-23">
          <mxGeometry width="30" height="30" as="geometry" />
        </mxCell>
        <mxCell id="5YD0OCtKCRECGLsbeRNo-2" value="2" style="whiteSpace=wrap;html=1;aspect=fixed;fillColor=#FFFF00;container=0;strokeColor=#000000;strokeWidth=1;" vertex="1" parent="5YD0OCtKCRECGLsbeRNo-23">
          <mxGeometry x="30" width="30" height="30" as="geometry" />
        </mxCell>
        <mxCell id="5YD0OCtKCRECGLsbeRNo-3" value="1" style="whiteSpace=wrap;html=1;aspect=fixed;fillColor=#FF3333;fontColor=#ffffff;strokeColor=#000000;container=0;strokeWidth=1;" vertex="1" parent="5YD0OCtKCRECGLsbeRNo-23">
          <mxGeometry x="60" width="30" height="30" as="geometry" />
        </mxCell>
        <mxCell id="5YD0OCtKCRECGLsbeRNo-4" value="2" style="whiteSpace=wrap;html=1;aspect=fixed;fillColor=#FFFF00;container=0;strokeColor=#000000;strokeWidth=1;" vertex="1" parent="5YD0OCtKCRECGLsbeRNo-23">
          <mxGeometry x="90" width="30" height="30" as="geometry" />
        </mxCell>
        <mxCell id="5YD0OCtKCRECGLsbeRNo-7" value="3" style="whiteSpace=wrap;html=1;aspect=fixed;fillColor=#33FF99;container=0;strokeColor=#000000;strokeWidth=1;" vertex="1" parent="5YD0OCtKCRECGLsbeRNo-23">
          <mxGeometry y="30" width="30" height="30" as="geometry" />
        </mxCell>
        <mxCell id="5YD0OCtKCRECGLsbeRNo-8" value="4" style="whiteSpace=wrap;html=1;aspect=fixed;fillColor=#007FFF;container=0;strokeColor=#000000;strokeWidth=1;" vertex="1" parent="5YD0OCtKCRECGLsbeRNo-23">
          <mxGeometry x="24" y="24" width="30" height="30" as="geometry" />
        </mxCell>
        <mxCell id="5YD0OCtKCRECGLsbeRNo-9" value="3" style="whiteSpace=wrap;html=1;aspect=fixed;container=0;strokeColor=#000000;strokeWidth=1;fillColor=#33FF99;" vertex="1" parent="5YD0OCtKCRECGLsbeRNo-23">
          <mxGeometry x="54" y="24" width="30" height="30" as="geometry" />
        </mxCell>
        <mxCell id="5YD0OCtKCRECGLsbeRNo-10" value="4" style="whiteSpace=wrap;html=1;aspect=fixed;fillColor=#007FFF;container=0;strokeColor=#000000;strokeWidth=1;" vertex="1" parent="5YD0OCtKCRECGLsbeRNo-23">
          <mxGeometry x="84" y="24" width="30" height="30" as="geometry" />
        </mxCell>
        <mxCell id="5YD0OCtKCRECGLsbeRNo-12" value="1" style="whiteSpace=wrap;html=1;aspect=fixed;fillColor=#FF3333;fontColor=#ffffff;strokeColor=#000000;container=0;strokeWidth=1;" vertex="1" parent="5YD0OCtKCRECGLsbeRNo-23">
          <mxGeometry y="60" width="30" height="30" as="geometry" />
        </mxCell>
        <mxCell id="5YD0OCtKCRECGLsbeRNo-13" value="2" style="whiteSpace=wrap;html=1;aspect=fixed;container=0;strokeColor=#000000;strokeWidth=1;fillColor=#FFFF00;" vertex="1" parent="5YD0OCtKCRECGLsbeRNo-23">
          <mxGeometry x="24" y="54" width="30" height="30" as="geometry" />
        </mxCell>
        <mxCell id="5YD0OCtKCRECGLsbeRNo-14" value="1" style="whiteSpace=wrap;html=1;aspect=fixed;fillColor=#FF3333;fontColor=#ffffff;strokeColor=#000000;container=0;strokeWidth=1;" vertex="1" parent="5YD0OCtKCRECGLsbeRNo-23">
          <mxGeometry x="54" y="54" width="30" height="30" as="geometry" />
        </mxCell>
        <mxCell id="5YD0OCtKCRECGLsbeRNo-15" value="2" style="whiteSpace=wrap;html=1;aspect=fixed;container=0;strokeColor=#000000;strokeWidth=1;fillColor=#FFFF00;" vertex="1" parent="5YD0OCtKCRECGLsbeRNo-23">
          <mxGeometry x="84" y="54" width="30" height="30" as="geometry" />
        </mxCell>
        <mxCell id="5YD0OCtKCRECGLsbeRNo-17" value="3" style="whiteSpace=wrap;html=1;aspect=fixed;container=0;strokeColor=#000000;strokeWidth=1;fillColor=#33FF99;" vertex="1" parent="5YD0OCtKCRECGLsbeRNo-23">
          <mxGeometry y="90" width="30" height="30" as="geometry" />
        </mxCell>
        <mxCell id="5YD0OCtKCRECGLsbeRNo-18" value="4" style="whiteSpace=wrap;html=1;aspect=fixed;fillColor=#007FFF;container=0;strokeColor=#000000;strokeWidth=1;" vertex="1" parent="5YD0OCtKCRECGLsbeRNo-23">
          <mxGeometry x="24" y="84" width="30" height="30" as="geometry" />
        </mxCell>
        <mxCell id="5YD0OCtKCRECGLsbeRNo-19" value="3" style="whiteSpace=wrap;html=1;aspect=fixed;container=0;strokeColor=#000000;strokeWidth=1;fillColor=#33FF99;" vertex="1" parent="5YD0OCtKCRECGLsbeRNo-23">
          <mxGeometry x="54" y="84" width="30" height="30" as="geometry" />
        </mxCell>
        <mxCell id="5YD0OCtKCRECGLsbeRNo-20" value="4" style="whiteSpace=wrap;html=1;aspect=fixed;fillColor=#007FFF;container=0;strokeColor=#000000;strokeWidth=1;" vertex="1" parent="5YD0OCtKCRECGLsbeRNo-23">
          <mxGeometry x="84" y="84" width="30" height="30" as="geometry" />
        </mxCell>
        <mxCell id="5YD0OCtKCRECGLsbeRNo-24" value="" style="group" vertex="1" connectable="0" parent="5YD0OCtKCRECGLsbeRNo-148">
          <mxGeometry x="7" y="7" width="120" height="120" as="geometry" />
        </mxCell>
        <mxCell id="5YD0OCtKCRECGLsbeRNo-25" value="1" style="whiteSpace=wrap;html=1;aspect=fixed;fillColor=#FF3333;fontColor=#ffffff;strokeColor=#000000;container=0;strokeWidth=1;" vertex="1" parent="5YD0OCtKCRECGLsbeRNo-24">
          <mxGeometry width="30" height="30" as="geometry" />
        </mxCell>
        <mxCell id="5YD0OCtKCRECGLsbeRNo-26" value="2" style="whiteSpace=wrap;html=1;aspect=fixed;fillColor=#FFFF00;container=0;strokeColor=#000000;strokeWidth=1;" vertex="1" parent="5YD0OCtKCRECGLsbeRNo-24">
          <mxGeometry x="30" width="30" height="30" as="geometry" />
        </mxCell>
        <mxCell id="5YD0OCtKCRECGLsbeRNo-27" value="1" style="whiteSpace=wrap;html=1;aspect=fixed;fillColor=#FF3333;fontColor=#ffffff;strokeColor=#000000;container=0;strokeWidth=1;" vertex="1" parent="5YD0OCtKCRECGLsbeRNo-24">
          <mxGeometry x="60" width="30" height="30" as="geometry" />
        </mxCell>
        <mxCell id="5YD0OCtKCRECGLsbeRNo-28" value="2" style="whiteSpace=wrap;html=1;aspect=fixed;fillColor=#FFFF00;container=0;strokeColor=#000000;strokeWidth=1;" vertex="1" parent="5YD0OCtKCRECGLsbeRNo-24">
          <mxGeometry x="90" width="30" height="30" as="geometry" />
        </mxCell>
        <mxCell id="5YD0OCtKCRECGLsbeRNo-29" value="3" style="whiteSpace=wrap;html=1;aspect=fixed;fillColor=#33FF99;container=0;strokeColor=#000000;strokeWidth=1;" vertex="1" parent="5YD0OCtKCRECGLsbeRNo-24">
          <mxGeometry y="30" width="30" height="30" as="geometry" />
        </mxCell>
        <mxCell id="5YD0OCtKCRECGLsbeRNo-30" value="4" style="whiteSpace=wrap;html=1;aspect=fixed;fillColor=#007FFF;container=0;strokeColor=#000000;strokeWidth=1;" vertex="1" parent="5YD0OCtKCRECGLsbeRNo-24">
          <mxGeometry x="27" y="27" width="30" height="30" as="geometry" />
        </mxCell>
        <mxCell id="5YD0OCtKCRECGLsbeRNo-31" value="3" style="whiteSpace=wrap;html=1;aspect=fixed;container=0;strokeColor=#000000;strokeWidth=1;fillColor=#33FF99;" vertex="1" parent="5YD0OCtKCRECGLsbeRNo-24">
          <mxGeometry x="57" y="27" width="30" height="30" as="geometry" />
        </mxCell>
        <mxCell id="5YD0OCtKCRECGLsbeRNo-32" value="4" style="whiteSpace=wrap;html=1;aspect=fixed;fillColor=#007FFF;container=0;strokeColor=#000000;strokeWidth=1;" vertex="1" parent="5YD0OCtKCRECGLsbeRNo-24">
          <mxGeometry x="87" y="27" width="30" height="30" as="geometry" />
        </mxCell>
        <mxCell id="5YD0OCtKCRECGLsbeRNo-33" value="1" style="whiteSpace=wrap;html=1;aspect=fixed;fillColor=#FF3333;fontColor=#ffffff;strokeColor=#000000;container=0;strokeWidth=1;" vertex="1" parent="5YD0OCtKCRECGLsbeRNo-24">
          <mxGeometry y="60" width="30" height="30" as="geometry" />
        </mxCell>
        <mxCell id="5YD0OCtKCRECGLsbeRNo-34" value="2" style="whiteSpace=wrap;html=1;aspect=fixed;container=0;strokeColor=#000000;strokeWidth=1;fillColor=#FFFF00;" vertex="1" parent="5YD0OCtKCRECGLsbeRNo-24">
          <mxGeometry x="27" y="57" width="30" height="30" as="geometry" />
        </mxCell>
        <mxCell id="5YD0OCtKCRECGLsbeRNo-35" value="1" style="whiteSpace=wrap;html=1;aspect=fixed;fillColor=#FF3333;fontColor=#ffffff;strokeColor=#000000;container=0;strokeWidth=1;" vertex="1" parent="5YD0OCtKCRECGLsbeRNo-24">
          <mxGeometry x="57" y="57" width="30" height="30" as="geometry" />
        </mxCell>
        <mxCell id="5YD0OCtKCRECGLsbeRNo-36" value="2" style="whiteSpace=wrap;html=1;aspect=fixed;container=0;strokeColor=#000000;strokeWidth=1;fillColor=#FFFF00;" vertex="1" parent="5YD0OCtKCRECGLsbeRNo-24">
          <mxGeometry x="87" y="57" width="30" height="30" as="geometry" />
        </mxCell>
        <mxCell id="5YD0OCtKCRECGLsbeRNo-37" value="3" style="whiteSpace=wrap;html=1;aspect=fixed;container=0;strokeColor=#000000;strokeWidth=1;fillColor=#33FF99;" vertex="1" parent="5YD0OCtKCRECGLsbeRNo-24">
          <mxGeometry y="90" width="30" height="30" as="geometry" />
        </mxCell>
        <mxCell id="5YD0OCtKCRECGLsbeRNo-38" value="4" style="whiteSpace=wrap;html=1;aspect=fixed;fillColor=#007FFF;container=0;strokeColor=#000000;strokeWidth=1;" vertex="1" parent="5YD0OCtKCRECGLsbeRNo-24">
          <mxGeometry x="27" y="87" width="30" height="30" as="geometry" />
        </mxCell>
        <mxCell id="5YD0OCtKCRECGLsbeRNo-39" value="3" style="whiteSpace=wrap;html=1;aspect=fixed;container=0;strokeColor=#000000;strokeWidth=1;fillColor=#33FF99;" vertex="1" parent="5YD0OCtKCRECGLsbeRNo-24">
          <mxGeometry x="57" y="87" width="30" height="30" as="geometry" />
        </mxCell>
        <mxCell id="5YD0OCtKCRECGLsbeRNo-40" value="4" style="whiteSpace=wrap;html=1;aspect=fixed;fillColor=#007FFF;container=0;strokeColor=#000000;strokeWidth=1;" vertex="1" parent="5YD0OCtKCRECGLsbeRNo-24">
          <mxGeometry x="87" y="87" width="30" height="30" as="geometry" />
        </mxCell>
        <mxCell id="5YD0OCtKCRECGLsbeRNo-42" value="&lt;font color=&quot;#000000&quot;&gt;1&lt;/font&gt;" style="whiteSpace=wrap;html=1;aspect=fixed;fillColor=#FF3333;fontColor=#ffffff;strokeColor=#000000;container=0;strokeWidth=1;" vertex="1" parent="5YD0OCtKCRECGLsbeRNo-148">
          <mxGeometry x="14" y="14" width="30" height="30" as="geometry" />
        </mxCell>
        <mxCell id="5YD0OCtKCRECGLsbeRNo-43" value="2" style="whiteSpace=wrap;html=1;aspect=fixed;fillColor=#FFFF00;container=0;strokeColor=#000000;strokeWidth=1;" vertex="1" parent="5YD0OCtKCRECGLsbeRNo-148">
          <mxGeometry x="44" y="14" width="30" height="30" as="geometry" />
        </mxCell>
        <mxCell id="5YD0OCtKCRECGLsbeRNo-44" value="&lt;font color=&quot;#000000&quot;&gt;1&lt;/font&gt;" style="whiteSpace=wrap;html=1;aspect=fixed;fillColor=#FF3333;fontColor=#ffffff;strokeColor=#000000;container=0;strokeWidth=1;" vertex="1" parent="5YD0OCtKCRECGLsbeRNo-148">
          <mxGeometry x="74" y="14" width="30" height="30" as="geometry" />
        </mxCell>
        <mxCell id="5YD0OCtKCRECGLsbeRNo-45" value="2" style="whiteSpace=wrap;html=1;aspect=fixed;fillColor=#FFFF00;container=0;strokeColor=#000000;strokeWidth=1;" vertex="1" parent="5YD0OCtKCRECGLsbeRNo-148">
          <mxGeometry x="104" y="14" width="30" height="30" as="geometry" />
        </mxCell>
        <mxCell id="5YD0OCtKCRECGLsbeRNo-46" value="3" style="whiteSpace=wrap;html=1;aspect=fixed;fillColor=#33FF99;container=0;strokeColor=#000000;strokeWidth=1;" vertex="1" parent="5YD0OCtKCRECGLsbeRNo-148">
          <mxGeometry x="14" y="44" width="30" height="30" as="geometry" />
        </mxCell>
        <mxCell id="5YD0OCtKCRECGLsbeRNo-47" value="4" style="whiteSpace=wrap;html=1;aspect=fixed;fillColor=#007FFF;container=0;strokeColor=#000000;strokeWidth=1;" vertex="1" parent="5YD0OCtKCRECGLsbeRNo-148">
          <mxGeometry x="44" y="44" width="30" height="30" as="geometry" />
        </mxCell>
        <mxCell id="5YD0OCtKCRECGLsbeRNo-48" value="3" style="whiteSpace=wrap;html=1;aspect=fixed;container=0;strokeColor=#000000;strokeWidth=1;fillColor=#33FF99;" vertex="1" parent="5YD0OCtKCRECGLsbeRNo-148">
          <mxGeometry x="74" y="44" width="30" height="30" as="geometry" />
        </mxCell>
        <mxCell id="5YD0OCtKCRECGLsbeRNo-49" value="4" style="whiteSpace=wrap;html=1;aspect=fixed;fillColor=#007FFF;container=0;strokeColor=#000000;strokeWidth=1;" vertex="1" parent="5YD0OCtKCRECGLsbeRNo-148">
          <mxGeometry x="104" y="44" width="30" height="30" as="geometry" />
        </mxCell>
        <mxCell id="5YD0OCtKCRECGLsbeRNo-50" value="&lt;font color=&quot;#000000&quot;&gt;1&lt;/font&gt;" style="whiteSpace=wrap;html=1;aspect=fixed;fillColor=#FF3333;fontColor=#ffffff;strokeColor=#000000;container=0;strokeWidth=1;" vertex="1" parent="5YD0OCtKCRECGLsbeRNo-148">
          <mxGeometry x="14" y="74" width="30" height="30" as="geometry" />
        </mxCell>
        <mxCell id="5YD0OCtKCRECGLsbeRNo-51" value="2" style="whiteSpace=wrap;html=1;aspect=fixed;container=0;strokeColor=#000000;strokeWidth=1;fillColor=#FFFF00;" vertex="1" parent="5YD0OCtKCRECGLsbeRNo-148">
          <mxGeometry x="44" y="74" width="30" height="30" as="geometry" />
        </mxCell>
        <mxCell id="5YD0OCtKCRECGLsbeRNo-52" value="&lt;font color=&quot;#000000&quot;&gt;1&lt;/font&gt;" style="whiteSpace=wrap;html=1;aspect=fixed;fillColor=#FF3333;fontColor=#ffffff;strokeColor=#000000;container=0;strokeWidth=1;" vertex="1" parent="5YD0OCtKCRECGLsbeRNo-148">
          <mxGeometry x="74" y="74" width="30" height="30" as="geometry" />
        </mxCell>
        <mxCell id="5YD0OCtKCRECGLsbeRNo-53" value="2" style="whiteSpace=wrap;html=1;aspect=fixed;container=0;strokeColor=#000000;strokeWidth=1;fillColor=#FFFF00;" vertex="1" parent="5YD0OCtKCRECGLsbeRNo-148">
          <mxGeometry x="104" y="74" width="30" height="30" as="geometry" />
        </mxCell>
        <mxCell id="5YD0OCtKCRECGLsbeRNo-54" value="3" style="whiteSpace=wrap;html=1;aspect=fixed;container=0;strokeColor=#000000;strokeWidth=1;fillColor=#33FF99;" vertex="1" parent="5YD0OCtKCRECGLsbeRNo-148">
          <mxGeometry x="14" y="104" width="30" height="30" as="geometry" />
        </mxCell>
        <mxCell id="5YD0OCtKCRECGLsbeRNo-55" value="4" style="whiteSpace=wrap;html=1;aspect=fixed;fillColor=#007FFF;container=0;strokeColor=#000000;strokeWidth=1;" vertex="1" parent="5YD0OCtKCRECGLsbeRNo-148">
          <mxGeometry x="44" y="104" width="30" height="30" as="geometry" />
        </mxCell>
        <mxCell id="5YD0OCtKCRECGLsbeRNo-56" value="3" style="whiteSpace=wrap;html=1;aspect=fixed;container=0;strokeColor=#000000;strokeWidth=1;fillColor=#33FF99;" vertex="1" parent="5YD0OCtKCRECGLsbeRNo-148">
          <mxGeometry x="74" y="104" width="30" height="30" as="geometry" />
        </mxCell>
        <mxCell id="5YD0OCtKCRECGLsbeRNo-57" value="4" style="whiteSpace=wrap;html=1;aspect=fixed;fillColor=#007FFF;container=0;strokeColor=#000000;strokeWidth=1;" vertex="1" parent="5YD0OCtKCRECGLsbeRNo-148">
          <mxGeometry x="104" y="104" width="30" height="30" as="geometry" />
        </mxCell>
        <mxCell id="5YD0OCtKCRECGLsbeRNo-149" value="" style="shape=flexArrow;endArrow=classic;html=1;rounded=0;fillColor=#000000;gradientColor=#ffffff;" edge="1" parent="1">
          <mxGeometry width="50" height="50" relative="1" as="geometry">
            <mxPoint x="230" y="146.41" as="sourcePoint" />
            <mxPoint x="300" y="146.41" as="targetPoint" />
          </mxGeometry>
        </mxCell>
      </root>
    </mxGraphModel>
  </diagram>
</mxfile>
